# xmcd
#
# Track frame offsets: 
#        150
#        12366
#        24525
#        37693
#        52461
#        61044
#        71717
#        82822
#        94072
#        108573
#        121204
#        135096
#        147577
#        158900
#        171151
#        183507
#        197666
#        211270
#        223717
#        237304
#
# Disc length: 3399 seconds
#
# Revision: 0
# Processed by: cddbd v1.5.2PL0 Copyright (c) Steve Scherf et al.
# Submitted via: ExactAudioCopy v0.99pb4
#
DISCID=180d4514
DTITLE=Various Artist - Blues Guitar Legends
DYEAR=2008
DGENRE=Blues
TTITLE0=Earl Hooker - On The Hook
TTITLE1=Little Papa Joe - Lookin' For My Baby
TTITLE2=Lightnin' Hopkins - Mussy Haired Woman
TTITLE3=Big Bill Broonsy - Do Right Blues
TTITLE4=Louisana Red - I Had A Feeling
TTITLE5=Lowell Fulson - Jukebox Shuffle
TTITLE6=J.B. Lenoir - Mama Talk To Your Daughter
TTITLE7=Mojo Watson - You Know You Don't Want Me
TTITLE8=Albert King - Bad Luck Blues
TTITLE9=John Brimm  - Gary Stomp
TTITLE10=Ernest Louis - No More Lovin'
TTITLE11=Baby Boy Warren - Mattie Mae
TTITLE12=Joe Hill Louis - Jealous Man
TTITLE13=Henry Gray feat. Morris Pejoe - Watch Yourself
TTITLE14=Charlie Walker - Wrong Kind Of Woman
TTITLE15=L.C. Mckinley - Rosalie Blues
TTITLE16=Jimmy Wilson feat. Johnny Fuller - Alley Blues
TTITLE17=Willie (W.C.) Baker - Goin' Back Home Today
TTITLE18=Mississippi Fred McDowell - You Got To Move
TTITLE19=Aristocats - Blues After Hours
EXTD=
EXTT0=
EXTT1=
EXTT2=
EXTT3=
EXTT4=
EXTT5=
EXTT6=
EXTT7=
EXTT8=
EXTT9=
EXTT10=
EXTT11=
EXTT12=
EXTT13=
EXTT14=
EXTT15=
EXTT16=
EXTT17=
EXTT18=
EXTT19=
PLAYORDER=
